<svg width="47" height="44" viewBox="0 0 47 44" fill="none" xmlns="http://www.w3.org/2000/svg">
<g clip-path="url(#clip0_20948_41)">
<path d="M45.3835 4.37073C44.8204 3.71344 43.9771 3.35156 43.0086 3.35156C42.4821 3.35156 41.9243 3.45731 41.3511 3.66644L2.33234 17.8841C0.26166 18.6384 -0.0172209 19.7703 0.000714668 20.3779C0.0186503 20.9855 0.36435 22.1007 2.47653 22.7422C2.48919 22.7459 2.50185 22.7496 2.51451 22.753L10.608 24.9638L14.985 36.9112C15.5818 38.5399 16.9214 39.5517 18.4814 39.5517C19.4651 39.5517 20.4325 39.1583 21.2794 38.4144L26.2855 34.0145L33.5466 39.5954C33.5474 39.596 33.5484 39.5964 33.5491 39.597L33.618 39.6501C33.6244 39.6548 33.631 39.6598 33.6374 39.6645C34.4445 40.2621 35.3254 40.5776 36.186 40.5779H36.1863C37.8677 40.5779 39.2066 39.3899 39.5966 37.5517L45.9897 7.41849C46.2465 6.20898 46.0312 5.12671 45.3835 4.37073V4.37073ZM13.3156 24.5439L28.9305 16.9294L19.2077 26.791C19.0483 26.9525 18.9355 27.1502 18.8799 27.3654L17.0051 34.6143L13.3156 24.5439ZM19.4496 36.5177C19.3849 36.5745 19.3198 36.6252 19.2548 36.6718L20.9942 29.9472L24.1582 32.3793L19.4496 36.5177ZM43.3427 6.90656L36.9495 37.0401C36.8879 37.3284 36.6914 37.9995 36.186 37.9995C35.9363 37.9995 35.6226 37.8696 35.3015 37.6336L27.0736 31.3098C27.0726 31.3088 27.0712 31.3078 27.0698 31.3071L22.1741 27.544L36.2345 13.2827C36.6847 12.8262 36.7255 12.1269 36.3312 11.6254C35.9367 11.1239 35.2217 10.9661 34.6369 11.2514L11.5112 22.5287L3.30755 20.2883L42.3143 6.07504C42.6439 5.95486 42.8739 5.92969 43.0086 5.92969C43.0912 5.92969 43.2382 5.93909 43.2927 6.0032C43.3645 6.08679 43.4559 6.3718 43.3427 6.90656V6.90656Z" fill="#2352DE"/>
</g>
<defs>
<clipPath id="clip0_20948_41">
<rect width="46.0952" height="44" fill="white"/>
</clipPath>
</defs>
</svg>
